<svg width="210" height="210" xmlns="http://www.w3.org/2000/svg"><g fill="none" fill-rule="evenodd"><path fill="#76BE5E" d="M23.562 167.206l22.432 38.936 44.936-.041 22.504-38.978-22.432-38.937-44.936.041zM101.76 122.049l22.433 38.937 44.935-.042 22.505-38.978L169.2 83.029l-44.937.041z"/><path fill="#455A64" d="M43.72 41.511l22.432 38.936 44.935-.041 22.504-38.979L111.16 2.491l-44.937.042z"/><path stroke="#676C72" stroke-width="1.3" d="M92.19 111.975l-1.801 3.12-3.598.004"/><path d="M82.317 115.103l-30.359.028" stroke="#676C72" stroke-width="1.3" stroke-dasharray="6.395759842243194,4.476959491386424"/><path stroke="#676C72" stroke-width="1.3" d="M49.721 115.134l-3.597.003-1.796-3.117"/><path d="M42.094 108.143L26.94 81.836" stroke="#676C72" stroke-width="1.3" stroke-dasharray="6.395759842243194,4.476959491386424"/><g stroke="#676C72" stroke-width="1.3"><path d="M25.822 79.899l-1.796-3.118 1.802-3.12"/><path d="M28.069 69.78l15.204-26.334" stroke-dasharray="6.395759842243194,4.476959491386424"/><path d="M44.393 41.505l1.802-3.12 3.597-.004"/></g><path d="M54.266 38.377l30.359-.028" stroke="#676C72" stroke-width="1.3" stroke-dasharray="6.395759842243194,4.476959491386424"/><path stroke="#676C72" stroke-width="1.3" d="M86.863 38.347l3.597-.004 1.796 3.118"/><path d="M94.49 45.338l15.154 26.305" stroke="#676C72" stroke-width="1.3" stroke-dasharray="6.395759842243194,4.476959491386424"/><path stroke="#676C72" stroke-width="1.3" d="M110.761 73.582l1.796 3.117-1.802 3.12"/><path d="M108.515 83.7L93.31 110.036" stroke="#676C72" stroke-width="1.3" stroke-dasharray="6.395759842243194,4.476959491386424"/></g></svg>