<svg viewBox="0 0 400 216" xmlns="http://www.w3.org/2000/svg" xmlns:xlink="http://www.w3.org/1999/xlink"><defs><path id="a" d="M0 0h398v216H0z"/></defs><g transform="translate(1 -1)" fill="none" fill-rule="evenodd"><mask id="b" fill="#fff"><use xlink:href="#a"/></mask><g mask="url(#b)"><path d="M221.261 168.937c0 18.22-14.8 32.989-33.055 32.989-18.256 0-33.056-14.77-33.056-32.99 0-18.22 14.8-32.989 33.056-32.989 18.256 0 33.055 14.77 33.055 32.99" fill="#4B7D2F"/><path d="M152.026 127.763c18.598-16.875 42.007-27.6 67-30.698l76.188-9.44h55.476v94.786H145.395c-2.344 0-4.236-1.901-4.212-4.23l.294-26.998a32.095 32.095 0 0 1 10.549-23.42" fill="#76BF5E"/><path d="M549.023 182.411V17h-11.08L388.11 35.58c-49.151 6.096-95.19 27.205-131.765 60.415-13.041 11.842-20.553 28.534-20.744 46.093l-.374 40.323h313.795z" fill="#76BF5E"/><path d="M365.588 168.937c0 18.22-14.799 32.989-33.055 32.989s-33.056-14.77-33.056-32.99c0-18.22 14.8-32.989 33.056-32.989 18.256 0 33.055 14.77 33.055 32.99" fill="#4B7D2F"/><path d="M64.829 59.2c0-4.33 3.562-7.872 7.916-7.872 4.352 0 7.914 3.543 7.914 7.872 0 4.33-3.522 7.872-7.914 7.872-4.354 0-7.916-3.543-7.916-7.872m31.66 0c0-13.028-10.646-23.614-23.744-23.614C59.645 35.586 49 46.172 49 59.2c0 17.711 23.745 43.293 23.745 43.293S96.488 76.911 96.488 59.2" fill="#76BF5E"/></g></g></svg>