<svg viewBox="0 0 104 104" xmlns="http://www.w3.org/2000/svg" xmlns:xlink="http://www.w3.org/1999/xlink"><defs><path id="a" d="M.478.858h66.29v74.096H.477z"/></defs><g fill="none" fill-rule="evenodd"><g transform="translate(24 29)"><mask id="b" fill="#fff"><use xlink:href="#a"/></mask><path d="M.478 58.507V69.76c0 1.792.488 3.16 1.326 4.057l.215.21v-.01c.001.003.003.004.005.006.066.058.134.113.204.167.022.017.041.035.063.05.068.052.14.098.211.143l.07.046c.075.045.152.085.23.126l.064.032c.083.04.168.076.255.11l.051.02a3.402 3.402 0 0 0 .318.1c.102.028.206.051.313.071l.016.003c1.141.203 2.496-.072 3.946-.902l41.946-23.91 14.041-8.01c1.004-.573 1.757-1.235 2.259-1.944.504-.71.756-1.465.756-2.221a.283.283 0 0 0-.005.03l-.001-.07.006.035c0-1.494-1.009-3.009-3.015-4.15l-14.041-8.012L7.765 1.822a9.215 9.215 0 0 0-.843-.422l-.133-.056a7.33 7.33 0 0 0-.407-.155A6.038 6.038 0 0 0 5.159.895h-.017c-1.24-.153-2.317.167-3.123.897l-.013.013c-.065.058-.129.12-.19.186l-.012.012-.01.011c-.04.044-.081.088-.12.135a4.835 4.835 0 0 0-.326.44 4.552 4.552 0 0 0-.136.227l-.027.048a4.437 4.437 0 0 0-.122.24l-.015.03c-.09.194-.17.4-.24.616l-.002.005c-.033.103-.063.21-.092.318l-.01.039a7.007 7.007 0 0 0-.076.332c0 .003 0 .006-.002.01a7.597 7.597 0 0 0-.134 1.104l-.005.107a8.93 8.93 0 0 0-.009.387v52.455z" fill="#75BF5E" mask="url(#b)"/></g><path d="M1 62h50M1 72h36" stroke="#455A64" stroke-width="2" stroke-linecap="round"/></g></svg>