<svg viewBox="0 0 1298 715" xmlns="http://www.w3.org/2000/svg"><g fill="none" fill-rule="evenodd"><g stroke="#DCDCDC"><path d="M160.51 1310V-34M176.51 1310V-34M.5 485.594V79.344M16.5 566V102M320.51 1310V-34M336.51 1310V-34M480.52 1310V-34M496.52 1310V-34M640.52 1310V-34M656.52 1310V-34M800.53 1310V-34M816.53 1310V-34M960.53 1310V-34M976.53 1310V-34M1120.54 1310V-34M1136.54 1310V-34M1280.54 1310V-34M1296.54 1310V-34"/></g><g transform="translate(16 -30)"><path d="M578.36 401.64H79.66M392.28.08v265.08M800.53 368.09h464.01" stroke="#FFF" stroke-dasharray="10"/><circle stroke="#00BFA5" stroke-width="1.3" cx="464.52" cy="491" r="43.04"/><circle stroke="#00BFA5" stroke-width="1.3" cx="98.97" cy="54.73" r="26.47"/><path stroke="#76BF5E" stroke-width="1.3" d="M.5 9.63h144.01v144.01H.5zM160.51 418.9h304.01v146.54H160.51zM160.51 91.63h144.01v310.01H160.51z"/><path stroke="#FFD600" stroke-width="1.3" d="M79.8 251.58h64.7v314.11H79.8zM.5 408.64V251.58h65.29v214.99"/><circle stroke="#FFD600" stroke-width="1.3" cx="392.51" cy="268.76" r="72"/><path stroke="#76BF5E" stroke-width="1.3" d="M480.61 255.43h143.91v146.21H480.61zM800.83 368.09h143.91V514.3H800.83zM1120.59 629.51h143.91v146.21h-143.91zM800.83 753.24V533.03h143.91v132.64M624.52 81.25v158.59H480.61V91.63"/><circle stroke="#FFD600" stroke-width="1.3" cx="961.26" cy="758.14" r="43.04"/><circle stroke="#FFD600" stroke-width="1.3" cx="784.53" cy="103.2" r="30.97"/><path stroke="#76BF5E" stroke-width="1.3" d="M624.52 586.52v144.01H320.51V586.52zM1104.54 41.27v287.27H960.53V132.62"/><path stroke="#00BFA5" stroke-width="1.3" d="M1199.84 111.59h64.7v256.5h-64.7zM1120.54 191.97h65.29v176.12h-65.29z"/><path stroke="#FFD600" stroke-width="1.3" d="M719.23 368.09h65.29V514.3h-65.29zM784.52 232.22v117.26h-65.29v-55.53"/><path stroke="#00BFA5" stroke-width="1.3" d="M225.2 1006.07h-64.7V667.68h64.7zM304.51 962.68h-65.29v-295h65.29z"/><circle stroke="#00BFA5" stroke-width="1.3" cx="872.84" cy="368.09" r="56.23"/><path d="M464.52 586.69C327.81 586.69 217 475.87 217 339.16S327.81 91.63 464.52 91.63M960.15 263.09c136.71 0 247.53 110.82 247.53 247.52 0 136.7-110.82 247.53-247.53 247.53M321.67 667.68c139.31 0 252.25 112.94 252.25 252.26" stroke="#FFF" stroke-dasharray="10"/></g></g></svg>