<svg viewBox="0 0 104 104" xmlns="http://www.w3.org/2000/svg"><g fill="none" fill-rule="evenodd"><path d="M0 104V62h43v42H0z" fill="#75BF5E"/><path d="M47.705 90.707c-16.323 0-29.601-13.233-29.601-29.499 0-16.265 13.278-29.498 29.6-29.498 16.323 0 29.602 13.233 29.602 29.498 0 16.266-13.279 29.499-29.601 29.499" fill="#75BF5E"/><path d="M47.705 28.352c-18.18 0-32.971 14.74-32.971 32.857 0 18.116 14.79 32.855 32.97 32.855 18.181 0 32.971-14.739 32.971-32.855 0-18.118-14.79-32.857-32.97-32.857m0 6.716c14.487 0 26.23 11.704 26.23 26.14 0 14.438-11.743 26.14-26.23 26.14s-26.231-11.702-26.231-26.14c0-14.436 11.744-26.14 26.23-26.14" fill="#FFF"/><path stroke="#455A64" stroke-width="2" stroke-linecap="round" d="M95.04 103L51.897 60.005V103z"/></g></svg>