<svg viewBox="0 0 400 216" xmlns="http://www.w3.org/2000/svg"><g fill="none" fill-rule="evenodd"><path fill="#76BF5E" d="M170.108 213.946h57.73V3h-57.73z"/><path d="M266.947 108.473c0 36.182-30.433 65.514-67.973 65.514-37.541 0-67.974-29.332-67.974-65.514 0-36.182 30.433-65.514 67.974-65.514 37.54 0 67.973 29.332 67.973 65.514" fill="#4B7D2F"/><path d="M256.704 108.473c0 30.536-25.846 55.292-57.73 55.292-31.885 0-57.731-24.756-57.731-55.292 0-30.538 25.846-55.292 57.73-55.292 31.885 0 57.731 24.754 57.731 55.292" fill="#4B7D2F"/><path d="M147.76 134.957c9.76 17.156 28.825 28.808 50.748 28.808 21.922 0 40.987-11.652 50.747-28.808H147.761z" fill="#4B7D2F"/></g></svg>